<?xml version="1.0" encoding="UTF-8"?>
<svg id="b" data-name="Layer_1" xmlns="http://www.w3.org/2000/svg" viewBox="100 100 600 480">
  <g>
    <path d="M484.34,284.76h44.48c-31.68-52.44-89.22-87.5-154.95-87.5-7.53,0-14.95.47-22.23,1.36,56.33,6.91,104.66,39.71,132.71,86.14Z" style="fill: #ed1c24;"/>
    <g>
      <g>
        <g>
          <path d="M166.5,456.56c-2.62-.02-2.51-2.23-1.67-5.25l36.27-136.55c.78-2.61,3.2-4.01,5.61-3.99l25.58.17c2.21.02,3.45,1.23,3.22,4.25l-2.74,58.61h1.01s28.12-58.43,28.12-58.43c1.41-2.81,3.22-4.21,5.64-4.19l25.58.17c2.22.01,4.03,1.44,3.25,4.05l-36.27,136.55c-.83,3.02-1.76,5.23-4.58,5.21l-19.54-.13c-2.82-.02-4.26-1.24-3.43-4.25l20.47-76.82h-1.01s-33.16,76.73-33.16,76.73c-1.44,3.01-2.42,4.21-5.64,4.19l-4.43-.03c-3.02-.02-3.63-1.43-3.43-4.25l7.78-76.91h-1.01s-20.47,76.82-20.47,76.82c-.63,3.02-2.42,4.21-5.44,4.19l-19.74-.13Z" style="fill: #151433;"/>
          <path d="M356.1,453.42c-.2,2.82-1.84,4.42-4.66,4.4l-26.19-.18c-2.42-.02-3.88-1.03-3.51-3.65l2.42-14.09-16.52-.11-5.04,14.07c-.98,2.61-3.14,3.6-5.55,3.59l-26.19-.18c-2.62-.02-3.6-1.64-2.19-4.45l65.28-137.76c1.12-2.21,2.71-3.41,5.33-3.39l21.35.15c2.42.02,3.66,1.23,3.54,3.45l-8.07,138.15ZM317.22,413.67l11.08.08,8.49-50.92h-1.01s-18.57,50.84-18.57,50.84Z" style="fill: #151433;"/>
          <path d="M368.85,427.72l22.71-85.47c4.23-15.48,13.47-32.14,47.11-31.92,33.85.23,35.46,17.17,31.46,32.45l-7.92,29.96c-.78,2.61-2.59,4.01-5.21,3.99l-24.58-.17c-2.42-.02-3.63-1.44-2.85-4.05l7.34-27.35c1.06-4.63-.34-7.46-4.78-7.49-5.44-.04-7.25,2.77-8.52,7.4l-21.36,80.24c-1.27,4.63.14,7.46,5.18,7.49,4.43.03,6.85-2.77,8.12-7.4l7.83-29.36c.58-2.61,2.59-4.01,5.01-4l24.58.17c2.42.02,3.83,1.44,3.05,4.05l-8.61,31.98c-3.91,14.68-12.06,32.15-46.51,31.92-33.85-.23-36.06-17.17-32.06-32.45Z" style="fill: #151433;"/>
          <path d="M457.61,458.54c-2.42-.02-3.83-1.44-3.05-4.05l36.64-137.76c.78-2.61,2.39-4.01,5.21-3.99l24.58.17c2.21.02,3.62,1.44,2.85,4.05l-14.39,54.1,13.3.09,14.39-54.1c.78-2.61,2.59-4.01,5.21-3.99l24.58.17c2.22.01,3.63,1.43,2.85,4.05l-36.64,137.76c-.78,2.61-2.39,4.01-5.01,4l-24.58-.17c-2.42-.02-3.83-1.44-3.05-4.05l14.91-56.31-13.29-.09-14.91,56.31c-.78,2.61-2.39,4.01-5.01,4l-24.58-.17Z" style="fill: #151433;"/>
        </g>
        <path d="M648.57,312.07l-9.2-.06-2.28-.02-30.07-.2c-2.19-.01-4.27,1.61-4.84,3.78l-6.81,25.76c-.78,2.64.63,4.07,3.04,4.09l13.31.09-28.95,109.47c-.78,2.64.63,4.07,3.04,4.09l23.77.16c2.62.02,4.23-1.39,5.01-4.03l36.83-139.03c.9-3.45-.63-4.07-2.84-4.09Z" style="fill: #151433;"/>
      </g>
      <g>
        <path d="M161.49,469.32l15.98.11-14.42,49.75,22.7.16-4.34,14.59-38.68-.26,18.77-64.33Z" style="fill: #151433;"/>
        <path d="M192.75,505.13c3.84-20.67,23.66-36.34,44.08-36.2,17.43.12,28.48,11.63,25.07,29.95-3.84,20.67-23.84,36.33-44.08,36.2-17.34-.12-28.47-11.63-25.07-29.95ZM222.26,519.94c10.71.07,20.81-8.3,22.9-19.54,1.87-10.06-3.52-16.28-12.78-16.34-10.71-.07-20.81,8.3-22.9,19.54-1.87,10.07,3.61,16.28,12.78,16.34Z" style="fill: #151433;"/>
        <path d="M268.29,505.64c3.79-20.4,22.93-36.34,43-36.21,9.53.07,19.31,3.67,22.91,15.14l-13.67,7.99c-2.05-5.1-5.84-8.21-12.65-8.26-11.17-.08-20.79,8.66-22.81,19.54-1.88,10.16,3.55,17.09,13.27,17.16,5.72.04,11.58-2.19,15.41-9.07l-13.53-.09,3.71-13.14,28.87.2c-2.77,23.22-21.56,36.8-39.62,36.68-16.62-.11-28.33-11.45-24.89-29.95Z" style="fill: #151433;"/>
        <path d="M350.51,470.61l15.98.11-18.77,64.33-15.98-.11,18.77-64.33Z" style="fill: #151433;"/>
        <path d="M360.01,519.34l14.66-5.98c.41,4.18,2.45,8.37,8.53,8.41,3.81.03,7.61-1.31,8.43-5.75.57-3.08-.54-4.91-5.82-7.3l-2.61-1.11c-7.47-3.32-13.97-7.99-12.07-18.24,2.22-11.97,13.7-19.43,25.95-19.34,11.89.08,17.31,7.11,18.5,13.92l-13.87,6.62c-1.68-4.64-4.45-6.39-7.81-6.41-3.45-.02-6.36,1.95-6.87,4.67-.49,2.63,1.28,4.37,6.74,6.76l3.45,1.48c9.81,4.42,12.8,9.89,11.27,18.14-2.69,14.51-17.63,21.03-28.89,20.96-11.44-.08-19.82-6.85-19.6-16.84Z" style="fill: #151433;"/>
        <path d="M435.69,485.81l-13.89-.09,4.25-14.59,44.12.3-4.34,14.59-14.16-.1-14.42,49.74-15.98-.11,14.42-49.74Z" style="fill: #151433;"/>
        <path d="M479.62,471.49l15.98.11-18.77,64.33-15.98-.11,18.77-64.33Z" style="fill: #151433;"/>
        <path d="M494.37,507.09c3.82-20.58,23.46-36.25,43.43-36.11,9.35.06,19.04,3.67,22.64,15.13l-13.67,7.99c-2.42-5.1-6.16-7.94-12.79-7.99-10.8-.07-20.71,7.76-22.8,19-1.95,10.52,3.97,16.82,12.86,16.88,6.54.04,11.42-2.74,16.81-7.78l9.03,8.14c-10.2,11.37-21.3,14.83-30.65,14.77-16.89-.12-28.31-11.54-24.88-30.04Z" style="fill: #151433;"/>
        <path d="M556.21,520.67l14.65-5.98c.41,4.18,2.45,8.37,8.53,8.41,3.81.03,7.61-1.31,8.43-5.75.57-3.08-.54-4.91-5.83-7.3l-2.61-1.11c-7.47-3.32-13.97-7.99-12.07-18.24,2.22-11.97,13.7-19.43,25.96-19.34,11.89.08,17.31,7.11,18.5,13.93l-13.87,6.62c-1.68-4.64-4.45-6.39-7.81-6.41-3.45-.02-6.36,1.95-6.87,4.67-.49,2.63,1.28,4.37,6.74,6.76l3.45,1.48c9.81,4.42,12.8,9.89,11.27,18.14-2.69,14.51-17.63,21.03-28.89,20.96-11.44-.08-19.82-6.85-19.6-16.84Z" style="fill: #151433;"/>
      </g>
    </g>
    <path d="M469.8,129.84c-7.19,0-14.3.32-21.33.92,127.82,10.82,228.19,117.98,228.19,248.6,0,130.62-100.37,237.78-228.19,248.6,7.03.6,14.14.92,21.33.92,137.8,0,249.52-111.71,249.52-249.52,0-137.8-111.71-249.52-249.52-249.52Z" style="fill: #ed1c24;"/>
    <path d="M129.23,373.82c.46-9.1,8.01-16.36,17.23-16.36s17.25,7.74,17.25,17.25-7.74,17.25-17.25,17.25-16.76-7.26-17.23-16.36c0-.3-.02-.59-.02-.89s.02-.59.02-.89Z" style="fill: #ed1c24;"/>
    <path d="M323.81,284.76h44.13c-22.64-25.51-55.67-41.58-92.46-41.58-7.53,0-14.91.68-22.07,1.97,27.81,5.01,52.39,19.33,70.39,39.62Z" style="fill: #ed1c24;"/>
  </g>
</svg>

