<?xml version="1.0" encoding="UTF-8"?>
<svg id="a" data-name="Layer 1" xmlns="http://www.w3.org/2000/svg" viewBox="0 0 506.13 469.63">
  <rect x="220.62" y="372.24" width="63.07" height="21.41" style="fill: #bce3e5;"/>
  <g>
    <path d="M191.23,432.33h123.68v-65h-29.39v14.12c0,9.89-10.43,17.98-23.18,17.98h-18.54c-12.75,0-23.18-8.09-23.18-17.98v-14.12h-29.39v65h0Z" style="fill: #bce3e5; fill-rule: evenodd;"/>
    <path d="M42.35,5.78h421.43c14.45,0,26.18,11.73,26.18,26.18v314.11c0,14.45-11.73,26.18-26.18,26.18H42.35c-14.45,0-26.18-11.73-26.18-26.18V31.96c0-14.45,11.73-26.18,26.18-26.18h0Z" style="fill: #bce3e5;"/>
    <g>
      <path d="M489.28,351.98c.44-1.9.68-3.89.68-5.92V31.96c0-14.4-11.78-26.18-26.18-26.18H42.35c-2.03,0-4.02.24-5.92.68-.44,1.9-.68,3.89-.68,5.92v314.11c0,14.4,11.78,26.18,26.18,26.18h421.43c2.03,0,4.02-.24,5.92-.68h0Z" style="fill: #bce3e5; fill-rule: evenodd;"/>
      <path d="M42.35,372.24h421.43c14.4,0,26.18-11.78,26.18-26.18v-41.88H16.18v41.88c0,14.4,11.78,26.18,26.18,26.18Z" style="fill: #7dc0f4; fill-rule: evenodd;"/>
      <path d="M124.15,463.85h257.83v-18.65c0-10.26-8.39-18.65-18.65-18.65h-220.53c-10.25,0-18.65,8.39-18.65,18.65v18.65Z" style="fill: #7dc0f4; fill-rule: evenodd;"/>
    </g>
    <circle cx="252.82" cy="338.14" r="14.45" style="fill: #bce3e5;"/>
    <rect x="81.18" y="222.38" width="343.78" height="36.87" rx="18.44" ry="18.44" style="fill: #0aae88;"/>
    <path d="M99.61,259.25h9.02l16.3-36.87h-12.62l-16.15,36.54c1.12.21,2.27.33,3.46.33ZM131.65,259.25h12.62l16.3-36.87h-12.62l-16.3,36.87ZM167.28,259.25h12.62l16.3-36.87h-12.62l-16.3,36.87ZM202.92,259.25h12.62l16.3-36.87h-12.62l-16.3,36.87ZM238.55,259.25h12.62l16.3-36.87h-12.62l-16.3,36.87ZM274.19,259.25h12.62l16.3-36.87h-12.62l-16.3,36.87ZM309.83,259.25h12.62l16.3-36.87h-12.62l-16.3,36.87ZM345.46,259.25h12.62l16.3-36.87h-12.62l-16.3,36.87ZM381.1,259.25h12.62l9.28-20.98,6.89-15.58c-1.09-.2-2.21-.31-3.36-.31h-9.12l-16.3,36.87Z" style="fill: #53ad29; fill-rule: evenodd;"/>
    <path d="M99.61,228.16h10.14l-11.17,25.26c-6.49-.53-11.62-5.97-11.62-12.6,0-6.98,5.68-12.66,12.66-12.66h0ZM419.18,240.81c0,6.98-5.68,12.66-12.65,12.66h-10.25l11.17-25.27c6.55.48,11.73,5.95,11.73,12.61h0ZM134.2,253.47h-23.01l11.19-25.32h23.01l-11.19,25.32h0ZM169.83,253.47h-23l11.19-25.32h22.99l-11.19,25.32h0ZM205.47,253.47h-23.01l11.19-25.32h23.01l-11.19,25.32h0ZM241.1,253.47h-22.99l11.19-25.32h23.01l-11.2,25.32h0ZM276.74,253.47h-23.01l11.2-25.32h22.99l-11.19,25.32h0ZM312.38,253.47h-23.01l11.19-25.32h23.01l-11.19,25.32ZM371.83,228.16h23l-11.19,25.32h-23.01l11.19-25.32h0ZM348.01,253.47h-22.99l11.19-25.32h23l-11.19,25.32h0ZM99.61,265.03h306.92c13.35,0,24.21-10.86,24.21-24.21s-10.86-24.21-24.21-24.21H99.61c-13.35,0-24.21,10.86-24.21,24.21s10.86,24.21,24.21,24.21ZM369.19,82.21v41.35h-39.87l39.87-41.35ZM315.73,135.11h53.46v29.68c0,3.19,2.59,5.78,5.78,5.78,3.2,0,5.78-2.59,5.78-5.78v-29.68h12c3.19,0,5.78-2.59,5.78-5.78,0-3.19-2.59-5.78-5.78-5.78h-12v-55.66c0-2.36-1.43-4.48-3.61-5.36-2.18-.88-4.69-.35-6.33,1.35l-59.24,61.44c-1.61,1.67-2.07,4.14-1.17,6.27s3,3.52,5.33,3.52ZM227.1,100.82c0-14.97,12.17-27.15,27.14-27.15,14.96,0,27.15,12.18,27.15,27.15v31.05c0,14.97-12.18,27.15-27.15,27.15-14.97,0-27.15-12.18-27.15-27.15v-31.05s0,0,0,0ZM254.24,170.57c21.34,0,38.7-17.36,38.7-38.7v-31.05c0-21.34-17.36-38.7-38.7-38.7s-38.7,17.36-38.7,38.7v31.05c0,21.34,17.36,38.7,38.7,38.7h0ZM166.86,82.21v41.35h-39.88l39.88-41.35ZM113.39,135.11h53.47v29.68c0,3.19,2.58,5.78,5.78,5.78,3.19,0,5.78-2.59,5.78-5.78v-29.68h11.99c3.2,0,5.78-2.59,5.78-5.78s-2.58-5.78-5.78-5.78h-11.99v-55.66c0-2.36-1.44-4.48-3.62-5.36-2.18-.88-4.68-.35-6.32,1.35l-59.25,61.44c-1.61,1.67-2.06,4.14-1.16,6.27.91,2.13,2.99,3.52,5.32,3.52ZM253.07,346.89c-4.79,0-8.68-3.89-8.68-8.68,0-4.79,3.89-8.68,8.68-8.68,4.79,0,8.68,3.89,8.68,8.68,0,4.78-3.89,8.68-8.68,8.68ZM253.07,317.97c-11.16,0-20.23,9.08-20.23,20.24,0,11.16,9.07,20.23,20.23,20.23,11.16,0,20.23-9.08,20.23-20.23s-9.07-20.23-20.23-20.24ZM463.79,366.46c11.25,0,20.39-9.15,20.39-20.4v-36.1H21.96v36.1c0,11.25,9.15,20.4,20.39,20.4h421.43ZM226.39,378.01h53.35v3.43c0,6.61-7.97,12.2-17.4,12.2h-18.55c-9.43,0-17.4-5.59-17.4-12.2v-3.43h0ZM309.13,420.77v-42.76h-17.83v3.43c0,13.1-12.99,23.75-28.96,23.75h-18.55c-15.97,0-28.96-10.66-28.96-23.76v-3.43h-17.83v42.76h112.13ZM376.2,445.2v12.87h-246.27v-12.87c0-7.1,5.77-12.87,12.86-12.87h220.54c7.1,0,12.86,5.77,12.87,12.87h0ZM42.35,11.56c-11.25,0-20.39,9.15-20.39,20.4v266.45h462.22V31.96c0-11.25-9.15-20.4-20.39-20.4H42.35ZM463.79,0H42.35C24.74,0,10.4,14.34,10.4,31.96v314.11c0,17.62,14.34,31.95,31.95,31.95h143.1v42.76h-42.65c-13.46,0-24.42,10.96-24.42,24.43v18.65c0,3.19,2.58,5.78,5.78,5.78h257.82c3.2,0,5.78-2.59,5.78-5.78v-18.65c0-13.47-10.96-24.43-24.42-24.43h-42.65v-42.76h143.1c17.61,0,31.95-14.33,31.95-31.95V31.95C495.73,14.33,481.4,0,463.78,0h0Z" style="fill: #1e1e4a; fill-rule: evenodd;"/>
  </g>
</svg>