<?xml version="1.0" encoding="UTF-8"?>
<svg id="a" data-name="Layer 1" xmlns="http://www.w3.org/2000/svg" viewBox="0 0 453.55 382.68">
  <g id="b" data-name=" 48 Warning">
    <path d="M447.01,309.93L268,23C253.95.24,224.11-6.82,201.35,7.23c-6.36,3.93-11.73,9.28-15.68,15.63L6.37,310.26c-13.25,23.24-5.15,52.81,18.08,66.06,7.09,4.04,15.08,6.23,23.24,6.35h358.18c26.75-.43,48.1-22.46,47.67-49.21-.13-8.28-2.38-16.38-6.53-23.54Z" style="fill: #bce3e5;"/>
  </g>
  <g id="c" data-name="Layer 52">
    <path d="M405.87,382.68H47.7C20.95,382.27-.4,360.25.01,333.51c.13-8.16,2.31-16.16,6.35-23.24L185.66,22.86C199.79.14,229.66-6.81,252.37,7.32c6.35,3.95,11.7,9.32,15.63,15.68l179.01,286.93c13.43,23.14,5.55,52.79-17.6,66.22-7.16,4.15-15.26,6.4-23.54,6.53ZM213.01,39.46L33.73,326.87c-4.24,7.83-1.33,17.62,6.5,21.86,2.3,1.24,4.86,1.91,7.47,1.95h358.18c8.92-.14,16.03-7.47,15.9-16.39-.04-2.72-.77-5.39-2.12-7.76,0,0-179.01-286.98-179.09-287.07-4.83-7.61-14.92-9.86-22.53-5.03-2.02,1.29-3.74,3-5.03,5.03h0Z" style="fill: #1e1e4a;"/>
    <path d="M212.18,232.66l-4.26-63.62c-.83-12.8-5.2-33.49,4.58-43.89,7.44-8,25.06-9.38,30.4,1.71,4.54,13.03,5.55,27.03,2.91,40.58l-5.7,65.49c-.24,6.16-1.59,12.23-3.98,17.92-2.85,5.57-9.67,7.78-15.24,4.93-2.05-1.05-3.73-2.69-4.82-4.72-2.25-5.89-3.56-12.1-3.89-18.4h0ZM226.91,320.07c-10.96-.06-19.79-8.99-19.73-19.95.06-9.99,7.54-18.38,17.46-19.58,10.88-1.32,20.76,6.43,22.08,17.31,1.32,10.88-6.43,20.76-17.31,22.08-.83.1-1.66.15-2.49.14Z" style="fill: #1e1e4a;"/>
  </g>
</svg>