<?xml version="1.0" encoding="utf-8"?>
<svg version="1.1" xmlns="http://www.w3.org/2000/svg" viewBox="0 0 500 500" preserveAspectRatio="xMidYMid slice" fill="none">
  <g opacity="0.95">
    <g stroke="#FFFFFF" opacity="0.42" stroke-linecap="round" stroke-linejoin="round" stroke-miterlimit="10">
      <polyline points="24.011,26.247 33.694,25.097 47.797,10.326" />
      <polyline points="40.36,5.055 57.527,17.222 100.527,-6.945" />
      <polyline points="29.2,31.716 20.694,45.555 2.694,52.055" />
      <path d="M76.284,29.063c0,0,22.078,7.179,28.908,9.569c6.83,2.391,20.906,10.108,20.906,10.108s17.129,11.096,25.262,11.764
      c8.133,0.668,21.452-0.015,29.307,2.034c7.855,2.049,22.448,6.877,22.448,6.877l34.028,9.821l50.142,14.403
      c0,0,48.773,7.832,53.896,7.49c5.123-0.342,10.587-2.364,17.076-2.036c6.489,0.328,28.378,1.924,33.997,4.2
      c5.619,2.275,25.427,12.521,30.891,12.863c5.464,0.341,30.291-3.758,30.291-3.758s12.057-1.706,16.497,0.001
      c4.44,1.708,34.427,3.777,34.427,3.777"/>
      <polyline points="228.36,-3.278 286.71,95.228 353.602,41.056" />
      <polyline points="264.17,49.652 308.027,60.505 316.527,61.084 400.223,79.237 453.143,95.228 504.36,110.222" />
      <polyline points="303.212,59.313 320.096,68.475 345.693,75.222 362.36,77.722 396.009,90.883 420.338,144.608 430.693,174.222 423.749,231.197" />
      <polyline points="452.86,229.598 453.645,242.672 455.97,284.122 452.9,292.18 450.391,305.042 447.912,335.471 445.222,342.488 435.36,365.555 434.585,395.34 433.965,431.055 432.839,454.411 432.036,492.109" />
      <polyline points="70.422,372.828 106.779,367.566 151.36,365.555 166.609,374.326 184.388,394.145 261.477,391.204 371.267,395.34 434.585,395.34 463.563,398.949 487.272,406.232 504.36,416.614" />
      <polyline points="409.108,447.577 413.82,426.055 434.409,423.742 458.028,428.525 504.36,439.969" />
    </g>

    <g stroke="#FFFFFF" opacity="0.65" stroke-width="3" stroke-linecap="round" stroke-linejoin="round" stroke-miterlimit="10">
      <path d="M-5.14-6.945c0,0,36.5,44.5,59,61.5s101,83,108,92s18,15.5,21,21s29,96,34.5,113.5s22.5,65,22.5,65s5,12,12.5,10
      c0,0,8.957-0.5,3.478-18c-5.478-17.5-15.674-57.253,3.674-109.376c0,0,26.639,54.376,34.993,64.376
      c8.355,10,32.355,48,38.855,53s10.5,14.5,16,21s7,15,17,23s17,28.5,12.5,53.5s11,62,11,62"/>
      <path d="M225.308,215.87c0,0,31.631-29.315,36.591-37.315c4.96-8,16.96-46,28.46-47.5s81.5-8,89.5-5c8,3,46.5,23,56.5,24s55.5-1,68-3"/>
      <path d="M-5.14,426.859c0,0,20.5-12.304,38-17.804s70.623-20.253,85.312-25.126s43.219-8.874,60.704-11.374s64.484-15,73.484-16.5
      c0,0,4.87,0.105,4.978-5.397c0,0,11.679-7.103,33.1-3.103c21.421,4,37.198-4.194,45.56,0.903"/>
      <path d="M327.36,426.055l18.5-63.719c0,0,28.93-26.781,59.965-42.281c31.035-15.5,89.535-33.5,98.535-55"/>
      <path d="M405.86,505.555c0,0,32-16.5,44-22.5"/>
      <line x1="386.401" y1="496.205" x2="258.972" y2="458.341"/>
    </g>

    <g stroke="#FFFFFF" opacity="0.9" stroke-width="4" stroke-linecap="round" stroke-linejoin="round" stroke-miterlimit="10">
      <path d="M-5.14,286.055c0,0,53.5-7.5,85.5-15.5s115.438-32,124.969-38c9.531-6,15.437-17.5,22.484-17s101.547,47.5,117.047,43.5
      s85.5-33,159.5-34.5"/>
      <path d="M414.86,21.914c0,0-45,1.141-61.5,0.141s-24,3.5-33.5,8s-74.5,26-103,35s-105.398,36.63-105.398,36.63L44.706,46.887L0,0"/>
      <path d="M399.86-4.445c0,0,51,87,53,97s-2,126.586,0,137.043c2,10.457,51.5,89.957,51.5,89.957"/>
    </g>
  </g>
</svg>
